<svg version="1.1" viewBox="0.0 0.0 400.0 56.0" fill="none" stroke="none" stroke-linecap="square" stroke-miterlimit="10" xmlns:xlink="http://www.w3.org/1999/xlink" xmlns="http://www.w3.org/2000/svg"><clipPath id="p.0"><path d="m0 0l400.0 0l0 56.0l-400.0 0l0 -56.0z" clip-rule="nonzero"/></clipPath><g clip-path="url(#p.0)"><path fill="#ffffff" d="m0 0l400.0 0l0 56.0l-400.0 0z" fill-rule="evenodd"/><path fill="#000000" fill-opacity="0.0" d="m0 -0.0046839896l400.0 0l0 55.37008l-400.0 0z" fill-rule="evenodd"/><path fill="#000000" d="m27.783203 29.989063l12.96875 7.1875q0.984375 0.546875 1.296875 0.984375q0.328125 0.421875 0.328125 1.078125q0 0.84375 -0.609375 1.46875q-0.609375 0.609375 -1.40625 0.609375q-0.53125 0 -1.578125 -0.59375l-19.328125 -10.734375l19.328125 -10.75q1.046875 -0.5625 1.5625 -0.5625q0.8125 0 1.421875 0.609375q0.609375 0.609375 0.609375 1.4375q0 0.671875 -0.328125 1.109375q-0.3125 0.421875 -1.296875 0.96875l-12.96875 7.1875zm23.144531 -13.921875l0 8.984375q1.46875 -0.96875 2.984375 -1.4375q1.515625 -0.484375 3.046875 -0.484375q4.171875 0 7.0625 2.875q2.890625 2.875 2.890625 6.9375q0 3.875 -2.765625 6.484375q-2.75 2.609375 -7.265625 2.609375q-1.59375 0 -3.078125 -0.40625q-1.484375 -0.40625 -2.875 -1.21875l0 0.984375l-4.6875 0q-1.4375 0 -2.0625 -0.546875q-0.609375 -0.5625 -0.609375 -1.46875q0 -0.875 0.625 -1.421875q0.625 -0.5625 2.046875 -0.5625l0.6875 0l0 -17.328125l-0.6875 0q-1.4375 0 -2.0625 -0.546875q-0.609375 -0.5625 -0.609375 -1.46875q0 -0.875 0.609375 -1.421875q0.625 -0.5625 2.0625 -0.5625l4.6875 0zm11.96875 16.984375q0 -2.484375 -1.734375 -4.203125q-1.734375 -1.71875 -4.25 -1.71875q-2.5 0 -4.25 1.71875q-1.734375 1.71875 -1.734375 4.140625q0 2.21875 1.5625 3.640625q1.5625 1.40625 4.421875 1.40625q2.84375 0 4.40625 -1.40625q1.578125 -1.421875 1.578125 -3.578125zm27.488281 -0.1875q0 2.296875 -1.28125 4.453125q-1.28125 2.15625 -3.8125 3.4375q-2.53125 1.28125 -5.28125 1.28125q-2.734375 0 -5.234375 -1.25q-2.5 -1.265625 -3.8125 -3.4375q-1.296875 -2.171875 -1.296875 -4.53125q0 -2.40625 1.328125 -4.71875q1.328125 -2.3125 3.8125 -3.640625q2.484375 -1.328125 5.203125 -1.328125q2.734375 0 5.265625 1.359375q2.53125 1.359375 3.8125 3.65625q1.296875 2.296875 1.296875 4.71875zm-4.0 0.015625q0 -1.9375 -1.390625 -3.5625q-1.890625 -2.1875 -4.984375 -2.1875q-2.71875 0 -4.53125 1.75q-1.8125 1.734375 -1.8125 4.015625q0 1.875 1.828125 3.515625q1.84375 1.625 4.515625 1.625q2.703125 0 4.53125 -1.625q1.84375 -1.640625 1.84375 -3.53125zm13.550781 -9.21875l0 1.34375q1.09375 -0.9375 2.40625 -1.40625q1.328125 -0.46875 2.859375 -0.46875q3.5625 0 5.625 2.203125q1.640625 1.765625 1.640625 4.609375l0 7.453125q1.28125 0 1.875 0.5625q0.609375 0.546875 0.609375 1.4375q0 0.890625 -0.625 1.453125q-0.609375 0.546875 -2.046875 0.546875l-3.609375 0q-1.453125 0 -2.078125 -0.546875q-0.609375 -0.5625 -0.609375 -1.46875q0 -0.875 0.609375 -1.421875q0.609375 -0.5625 1.875 -0.5625l0 -7.5625q0 -1.3125 -0.703125 -1.921875q-0.921875 -0.78125 -2.75 -0.78125q-1.390625 0 -2.4375 0.546875q-1.046875 0.53125 -2.640625 2.265625l0 7.453125q1.546875 0 1.984375 0.28125q0.96875 0.59375 0.96875 1.71875q0 0.890625 -0.625 1.453125q-0.609375 0.546875 -2.0625 0.546875l-4.546875 0q-1.4375 0 -2.0625 -0.546875q-0.609375 -0.5625 -0.609375 -1.46875q0 -1.09375 0.9375 -1.703125q0.46875 -0.28125 2.015625 -0.28125l0 -9.734375q-1.28125 0 -1.890625 -0.5625q-0.59375 -0.5625 -0.59375 -1.453125q0 -0.875 0.609375 -1.421875q0.625 -0.5625 2.0625 -0.5625l3.8125 0zm34.30078 0.71875q0.71875 -0.6875 1.484375 -0.6875q0.859375 0 1.40625 0.625q0.5625 0.609375 0.5625 2.03125l0 2.578125q0 1.453125 -0.5625 2.0625q-0.546875 0.59375 -1.453125 0.59375q-0.8125 0 -1.390625 -0.46875q-0.40625 -0.34375 -0.640625 -1.421875q-0.234375 -1.09375 -1.125 -1.625q-1.59375 -0.9375 -4.046875 -0.9375q-2.828125 0 -4.546875 1.671875q-1.703125 1.65625 -1.703125 4.1875q0 2.34375 1.640625 3.703125q1.640625 1.359375 5.453125 1.359375q2.5 0 4.078125 -0.5q0.9375 -0.3125 1.765625 -1.0625q0.84375 -0.765625 1.53125 -0.765625q0.828125 0 1.421875 0.609375q0.59375 0.609375 0.59375 1.421875q0 1.328125 -1.8125 2.53125q-2.703125 1.78125 -7.890625 1.78125q-4.671875 0 -7.265625 -1.9375q-3.515625 -2.609375 -3.515625 -7.109375q0 -4.28125 2.84375 -7.078125q2.859375 -2.8125 7.4375 -2.8125q1.671875 0 3.09375 0.3125q1.421875 0.3125 2.640625 0.9375zm13.628906 -8.3125l0 8.53125q1.25 -0.75 2.53125 -1.109375q1.28125 -0.359375 2.578125 -0.359375q2.078125 0 3.6875 0.703125q1.625 0.703125 2.6875 2.21875q1.078125 1.515625 1.078125 3.8125l0 7.53125q1.515625 0 1.984375 0.28125q0.9375 0.609375 0.9375 1.71875q0 0.890625 -0.609375 1.453125q-0.59375 0.546875 -2.046875 0.546875l-4.5625 0q-1.4375 0 -2.046875 -0.546875q-0.609375 -0.5625 -0.609375 -1.46875q0 -1.09375 0.9375 -1.703125q0.484375 -0.3125 1.984375 -0.28125l0 -7.25q0 -1.546875 -0.703125 -2.171875q-0.921875 -0.84375 -2.71875 -0.84375q-1.328125 0 -2.359375 0.53125q-1.015625 0.515625 -2.75 2.234375l0 7.5q1.546875 0 1.984375 0.28125q0.96875 0.609375 0.96875 1.71875q0 0.890625 -0.625 1.453125q-0.609375 0.546875 -2.0625 0.546875l-4.546875 0q-1.4375 0 -2.0625 -0.546875q-0.609375 -0.5625 -0.609375 -1.46875q0 -1.09375 0.953125 -1.703125q0.46875 -0.3125 2.0 -0.28125l0 -17.328125l-0.6875 0q-1.453125 0 -2.0625 -0.546875q-0.609375 -0.5625 -0.609375 -1.46875q0 -0.875 0.609375 -1.421875q0.609375 -0.5625 2.0625 -0.5625l4.6875 0zm31.738281 25.328125l0 -0.9375q-1.5 0.796875 -3.328125 1.203125q-1.8125 0.40625 -3.296875 0.40625q-3.21875 0 -5.234375 -1.703125q-2.015625 -1.71875 -2.015625 -3.796875q0 -2.515625 2.5625 -4.671875q2.578125 -2.15625 7.109375 -2.15625q1.8125 0 4.203125 0.390625l0 -0.96875q0 -0.890625 -0.78125 -1.453125q-0.765625 -0.578125 -2.9375 -0.578125q-1.765625 0 -4.609375 0.703125q-1.046875 0.265625 -1.640625 0.265625q-0.796875 0 -1.359375 -0.578125q-0.546875 -0.578125 -0.546875 -1.484375q0 -0.5 0.1875 -0.875q0.203125 -0.375 0.546875 -0.59375q0.359375 -0.21875 1.46875 -0.53125q1.484375 -0.421875 3.03125 -0.65625q1.546875 -0.25 2.796875 -0.25q3.71875 0 5.78125 1.609375q2.0625 1.609375 2.0625 4.40625l0 8.25l0.6875 0q1.4375 0 2.046875 0.5625q0.625 0.546875 0.625 1.4375q0 0.890625 -0.625 1.453125q-0.609375 0.546875 -2.046875 0.546875l-4.6875 0zm0 -7.171875q-2.40625 -0.46875 -4.4375 -0.46875q-2.4375 0 -4.203125 1.1875q-1.09375 0.765625 -1.09375 1.546875q0 0.5625 0.53125 0.921875q0.984375 0.640625 2.671875 0.640625q1.453125 0 3.28125 -0.5625q1.828125 -0.5625 3.25 -1.546875l0 -1.71875zm16.347656 -10.5625l0 1.34375q1.09375 -0.9375 2.40625 -1.40625q1.328125 -0.46875 2.859375 -0.46875q3.5625 0 5.625 2.203125q1.640625 1.765625 1.640625 4.609375l0 7.453125q1.28125 0 1.875 0.5625q0.609375 0.546875 0.609375 1.4375q0 0.890625 -0.625 1.453125q-0.609375 0.546875 -2.046875 0.546875l-3.609375 0q-1.453125 0 -2.078125 -0.546875q-0.609375 -0.5625 -0.609375 -1.46875q0 -0.875 0.609375 -1.421875q0.609375 -0.5625 1.875 -0.5625l0 -7.5625q0 -1.3125 -0.703125 -1.921875q-0.921875 -0.78125 -2.75 -0.78125q-1.390625 0 -2.4375 0.546875q-1.046875 0.53125 -2.640625 2.265625l0 7.453125q1.546875 0 1.984375 0.28125q0.96875 0.59375 0.96875 1.71875q0 0.890625 -0.625 1.453125q-0.609375 0.546875 -2.0625 0.546875l-4.546875 0q-1.4375 0 -2.0625 -0.546875q-0.609375 -0.5625 -0.609375 -1.46875q0 -1.09375 0.9375 -1.703125q0.46875 -0.28125 2.015625 -0.28125l0 -9.734375q-1.28125 0 -1.890625 -0.5625q-0.59375 -0.5625 -0.59375 -1.453125q0 -0.875 0.609375 -1.421875q0.625 -0.5625 2.0625 -0.5625l3.8125 0zm32.45703 1.1875l0 -1.1875l4.6875 0q1.453125 0 2.0625 0.5625q0.609375 0.546875 0.609375 1.453125q0 0.875 -0.609375 1.4375q-0.609375 0.546875 -2.0625 0.546875l-0.6875 0l0 14.578125q0 2.109375 -0.890625 3.671875q-0.875 1.578125 -2.71875 2.703125q-1.828125 1.140625 -4.140625 1.140625l-4.53125 0q-1.4375 0 -2.0625 -0.5625q-0.609375 -0.546875 -0.609375 -1.421875q0 -0.90625 0.609375 -1.46875q0.625 -0.546875 2.0625 -0.546875l4.421875 0q1.828125 0 2.84375 -1.0q1.015625 -1.0 1.015625 -2.515625l0 -1.953125q-1.328125 0.859375 -2.703125 1.28125q-1.375 0.4375 -2.828125 0.4375q-4.078125 0 -6.828125 -2.71875q-2.75 -2.734375 -2.75 -6.734375q0 -4.03125 2.75 -6.75q2.75 -2.734375 6.828125 -2.734375q1.53125 0 2.90625 0.453125q1.375 0.4375 2.625 1.328125zm-0.015625 7.671875q0 -2.203125 -1.640625 -3.8125q-1.625 -1.625 -3.90625 -1.625q-2.28125 0 -3.921875 1.625q-1.625 1.609375 -1.625 3.8125q0 2.234375 1.625 3.84375q1.640625 1.609375 3.921875 1.609375q2.28125 0 3.90625 -1.609375q1.640625 -1.609375 1.640625 -3.84375zm22.675781 6.859375q0 1.140625 -0.8125 1.90625q-0.796875 0.75 -2.203125 0.75q-1.40625 0 -2.203125 -0.75q-0.796875 -0.765625 -0.796875 -1.90625q0 -1.125 0.796875 -1.890625q0.796875 -0.765625 2.203125 -0.765625q1.40625 0 2.203125 0.765625q0.8125 0.765625 0.8125 1.890625zm17.660156 -4.640625l0 6.65625l-4.6875 0q-1.453125 0 -2.078125 -0.546875q-0.609375 -0.5625 -0.609375 -1.46875q0 -0.875 0.625 -1.421875q0.625 -0.5625 2.0625 -0.5625l0.671875 0l0 -17.328125l-0.671875 0q-1.453125 0 -2.078125 -0.546875q-0.609375 -0.5625 -0.609375 -1.46875q0 -0.875 0.609375 -1.421875q0.625 -0.5625 2.078125 -0.5625l4.6875 0l0 13.484375l3.125 -2.515625q-0.5 -0.84375 -0.5 -1.359375q0 -0.90625 0.609375 -1.453125q0.609375 -0.5625 2.046875 -0.5625l4.578125 0q1.4375 0 2.046875 0.5625q0.625 0.546875 0.625 1.453125q0 0.875 -0.625 1.4375q-0.609375 0.546875 -2.046875 0.546875l-1.109375 0l-4.875 3.953125l6.546875 5.78125l1.171875 0q1.453125 0 2.0625 0.5625q0.609375 0.546875 0.609375 1.4375q0 0.890625 -0.609375 1.453125q-0.609375 0.546875 -2.0625 0.546875l-4.609375 0q-1.4375 0 -2.0625 -0.546875q-0.609375 -0.5625 -0.609375 -1.46875q0 -0.765625 0.65625 -1.5l-4.234375 -3.75l-0.734375 0.609375zm37.691406 -1.875q0 2.296875 -1.28125 4.453125q-1.28125 2.15625 -3.8125 3.4375q-2.53125 1.28125 -5.28125 1.28125q-2.734375 0 -5.234375 -1.25q-2.5 -1.265625 -3.8125 -3.4375q-1.296875 -2.171875 -1.296875 -4.53125q0 -2.40625 1.328125 -4.71875q1.328125 -2.3125 3.8125 -3.640625q2.484375 -1.328125 5.203125 -1.328125q2.734375 0 5.265625 1.359375q2.53125 1.359375 3.8125 3.65625q1.296875 2.296875 1.296875 4.71875zm-4.0 0.015625q0 -1.9375 -1.390625 -3.5625q-1.890625 -2.1875 -4.984375 -2.1875q-2.71875 0 -4.53125 1.75q-1.8125 1.734375 -1.8125 4.015625q0 1.875 1.828125 3.515625q1.84375 1.625 4.515625 1.625q2.703125 0 4.53125 -1.625q1.84375 -1.640625 1.84375 -3.53125zm28.003906 -0.015625q0 2.296875 -1.28125 4.453125q-1.28125 2.15625 -3.8125 3.4375q-2.53125 1.28125 -5.28125 1.28125q-2.734375 0 -5.234375 -1.25q-2.5 -1.265625 -3.8125 -3.4375q-1.296875 -2.171875 -1.296875 -4.53125q0 -2.40625 1.328125 -4.71875q1.328125 -2.3125 3.8125 -3.640625q2.484375 -1.328125 5.203125 -1.328125q2.734375 0 5.265625 1.359375q2.53125 1.359375 3.8125 3.65625q1.296875 2.296875 1.296875 4.71875zm-4.0 0.015625q0 -1.9375 -1.390625 -3.5625q-1.890625 -2.1875 -4.984375 -2.1875q-2.71875 0 -4.53125 1.75q-1.8125 1.734375 -1.8125 4.015625q0 1.875 1.828125 3.515625q1.84375 1.625 4.515625 1.625q2.703125 0 4.53125 -1.625q1.84375 -1.640625 1.84375 -3.53125zm25.847656 -16.296875l-12.828125 27.671875q-0.484375 1.03125 -0.875 1.34375q-0.515625 0.40625 -1.234375 0.40625q-0.8125 0 -1.421875 -0.59375q-0.59375 -0.578125 -0.59375 -1.3125q0 -0.53125 0.46875 -1.546875l12.875 -27.640625q0.484375 -1.03125 0.859375 -1.34375q0.53125 -0.421875 1.234375 -0.421875q0.8125 0 1.390625 0.578125q0.59375 0.578125 0.59375 1.328125q0 0.515625 -0.46875 1.53125zm19.988281 13.40625l-12.96875 -7.1875q-0.984375 -0.546875 -1.3125 -0.96875q-0.3125 -0.4375 -0.3125 -1.109375q0 -0.828125 0.609375 -1.4375q0.609375 -0.609375 1.421875 -0.609375q0.515625 0 1.5625 0.5625l19.3125 10.75l-19.3125 10.734375q-1.046875 0.59375 -1.5625 0.59375q-0.8125 0 -1.421875 -0.609375q-0.609375 -0.609375 -0.609375 -1.46875q0 -0.65625 0.3125 -1.078125q0.328125 -0.4375 1.3125 -0.984375l12.96875 -7.1875z" fill-rule="nonzero"/></g></svg>